<svg xmlns="http://www.w3.org/2000/svg" viewBox="0 0 64 64"><polygon fill="#f2f2f2" points="15 35 15 3 41 3 49 11 49 35 15 35"/><path fill="#efb22b" d="M7,37V31a2,2,0,0,1,2-2h6v8Z"/><polygon fill="#e0e0e0" points="49 11 41 11 41 3 49 11"/><path fill="#f9c032" d="M33 35a1 1 0 011-1H53V30a1 1 0 00-1-1H33l-3 6H9a2 2 0 00-2 2V59a2 2 0 002 2H51a2 2 0 002-2V36H34A1 1 0 0133 35zM53 35h2.845A1.155 1.155 0 0157 36.155v5.691A1.155 1.155 0 0155.845 43H53a0 0 0 010 0V35A0 0 0 0153 35z"/><path fill="#f4b321" d="M53,43h2.845A1.155,1.155,0,0,1,57,44.155v5.691A1.155,1.155,0,0,1,55.845,51H53a0,0,0,0,1,0,0V43A0,0,0,0,1,53,43Z"/><rect width="46" height="2" x="7" y="56" fill="#e29d13"/><path fill="#e29d13" d="M38 33H37a1 1 0 010-2h1a1 1 0 010 2zM43 33H42a1 1 0 010-2h1a1 1 0 010 2zM48 33H47a1 1 0 010-2h1a1 1 0 010 2zM34 34a1 1 0 000 2H53V34z"/><rect width="1" height="8" x="53" y="35" fill="#efb22b"/><rect width="1" height="8" x="53" y="43" fill="#e8a623"/><path fill="#e29d13" d="M15,34v1H9a2.006,2.006,0,0,0-2,2V36a2.006,2.006,0,0,1,2-2Z"/><path fill="#e2e2e2" d="M49,28v1H33l-3,6H15V34H27.952a1.7,1.7,0,0,0,1.517-.937L31.6,28.8a1.44,1.44,0,0,1,1.287-.8Z"/><polygon fill="#e0e0e0" points="49 11 41 11 41 3 49 11"/><path fill="#c1c1c1" d="M25 17H19a1 1 0 010-2h6a1 1 0 010 2zM45 25H37a1 1 0 010-2h8a1 1 0 010 2zM29 21H19a1 1 0 010-2H29a1 1 0 010 2zM33 25H19a1 1 0 010-2H33a1 1 0 010 2zM45 21H33a1 1 0 010-2H45a1 1 0 010 2zM45 17H29a1 1 0 010-2H45a1 1 0 010 2z"/></svg>